<svg xmlns="http://www.w3.org/2000/svg" viewBox="296 55 310 110" width="310" height="110">
  <defs>
    <style>
      @import url('https://fonts.googleapis.com/css2?family=Nunito:wght@600;800&amp;display=swap');
    </style>
    <linearGradient id="iconGrad2" x1="0%" y1="0%" x2="100%" y2="100%">
      <stop offset="0%" style="stop-color:#B5E8C8;stop-opacity:1" />
      <stop offset="100%" style="stop-color:#A8D8EA;stop-opacity:1" />
    </linearGradient>
    <filter id="softShadow2" x="-20%" y="-20%" width="140%" height="140%">
      <feDropShadow dx="0" dy="3" stdDeviation="6" flood-color="#5BA08A" flood-opacity="0.12"/>
    </filter>
  </defs>

  <rect x="310" y="74" width="80" height="80" rx="20" fill="url(#iconGrad2)" filter="url(#softShadow2)"/>

  <circle cx="330" cy="104" r="4.5" fill="#FFFFFF" opacity="0.95"/>
  <rect x="340" y="100" width="34" height="8" rx="4" fill="#FFFFFF" opacity="0.95"/>

  <circle cx="330" cy="119" r="4.5" fill="#FFFFFF" opacity="0.95"/>
  <rect x="340" y="115" width="26" height="8" rx="4" fill="#FFFFFF" opacity="0.95"/>

  <circle cx="330" cy="134" r="4.5" fill="#FFFFFF" opacity="0.95"/>
  <rect x="340" y="130" width="30" height="8" rx="4" fill="#FFFFFF" opacity="0.95"/>

  <path d="M379,91 C379,91 368,83 368,76 C368,72 371,69 374,69 C376,69 378,71 379,73 C380,71 382,69 384,69 C387,69 390,72 390,76 C390,83 379,91 379,91 Z" fill="#F9A8C9" opacity="0.92"/>

  <text x="408" y="126" font-family="'Nunito', 'Trebuchet MS', sans-serif" font-weight="800" fill="#3D7A63" letter-spacing="-1">
    <tspan font-size="46">Gather </tspan><tspan font-size="26" font-weight="600" fill="#85BFA8">Lists</tspan>
  </text>
</svg>
