<svg xmlns="http://www.w3.org/2000/svg" viewBox="170 230 540 120" width="540" height="120">
  <defs>
    <style>
      @import url('https://fonts.googleapis.com/css2?family=Nunito:wght@400;600;700;800&amp;display=swap');
    </style>
    <linearGradient id="iconGrad" x1="0%" y1="0%" x2="100%" y2="100%">
      <stop offset="0%" style="stop-color:#B5E8C8;stop-opacity:1" />
      <stop offset="100%" style="stop-color:#A8D8EA;stop-opacity:1" />
    </linearGradient>
    <filter id="softShadow" x="-20%" y="-20%" width="140%" height="140%">
      <feDropShadow dx="0" dy="4" stdDeviation="8" flood-color="#5BA08A" flood-opacity="0.15"/>
    </filter>
  </defs>

  <rect x="198" y="250" width="96" height="96" rx="24" fill="url(#iconGrad)" filter="url(#softShadow)"/>

  <circle cx="221" cy="284" r="5.5" fill="#FFFFFF" opacity="0.95"/>
  <rect x="233" y="279" width="42" height="9" rx="4.5" fill="#FFFFFF" opacity="0.95"/>

  <circle cx="221" cy="300" r="5.5" fill="#FFFFFF" opacity="0.95"/>
  <rect x="233" y="295" width="32" height="9" rx="4.5" fill="#FFFFFF" opacity="0.95"/>

  <circle cx="221" cy="316" r="5.5" fill="#FFFFFF" opacity="0.95"/>
  <rect x="233" y="311" width="38" height="9" rx="4.5" fill="#FFFFFF" opacity="0.95"/>

  <path d="M279,268 C279,268 266,259 266,251 C266,246 269,243 272,243 C275,243 277,245 279,247 C281,245 283,243 286,243 C289,243 292,246 292,251 C292,259 279,268 279,268 Z" fill="#F9A8C9" opacity="0.92"/>

  <text x="312" y="305" font-family="'Nunito', 'Trebuchet MS', sans-serif" font-weight="800" fill="#3D7A63" letter-spacing="-1">
    <tspan font-size="54">Gather </tspan><tspan font-size="30" font-weight="600" fill="#85BFA8">Lists</tspan>
  </text>

  <text x="313" y="330" font-family="'Nunito', 'Trebuchet MS', sans-serif" font-size="15" font-weight="600" fill="#85BFA8" letter-spacing="0.5">Gather your lists, meals, and more.</text>
</svg>
