<svg xmlns="http://www.w3.org/2000/svg" viewBox="76 60 148 148" width="148" height="148">
  <defs>
    <linearGradient id="iconGrad" x1="0%" y1="0%" x2="100%" y2="100%">
      <stop offset="0%" style="stop-color:#B5E8C8;stop-opacity:1" />
      <stop offset="100%" style="stop-color:#A8D8EA;stop-opacity:1" />
    </linearGradient>
    <filter id="softShadow" x="-20%" y="-20%" width="140%" height="140%">
      <feDropShadow dx="0" dy="4" stdDeviation="8" flood-color="#5BA08A" flood-opacity="0.15"/>
    </filter>
  </defs>

  <rect x="90" y="74" width="120" height="120" rx="28" fill="url(#iconGrad)" filter="url(#softShadow)"/>

  <circle cx="118" cy="114" r="6" fill="#FFFFFF" opacity="0.95"/>
  <rect x="131" y="109" width="52" height="10" rx="5" fill="#FFFFFF" opacity="0.95"/>

  <circle cx="118" cy="134" r="6" fill="#FFFFFF" opacity="0.95"/>
  <rect x="131" y="129" width="40" height="10" rx="5" fill="#FFFFFF" opacity="0.95"/>

  <circle cx="118" cy="154" r="6" fill="#FFFFFF" opacity="0.95"/>
  <rect x="131" y="149" width="48" height="10" rx="5" fill="#FFFFFF" opacity="0.95"/>

  <path d="M190,100 C190,100 176,90 176,82 C176,77 180,74 183,74 C186,74 188,76 190,78 C192,76 194,74 197,74 C200,74 204,77 204,82 C204,90 190,100 190,100 Z" fill="#F9A8C9" opacity="0.92"/>
</svg>
