<svg xmlns="http://www.w3.org/2000/svg" viewBox="0 0 300 300" width="300" height="300">
  <defs>
    <linearGradient id="iconGrad" x1="0%" y1="0%" x2="100%" y2="100%">
      <stop offset="0%" style="stop-color:#B5E8C8;stop-opacity:1" />
      <stop offset="100%" style="stop-color:#A8D8EA;stop-opacity:1" />
    </linearGradient>
  </defs>

  <rect width="300" height="300" fill="url(#iconGrad)"/>

  <circle cx="70" cy="100" r="15" fill="#FFFFFF" opacity="0.95"/>
  <rect x="102.5" y="87.5" width="130" height="25" rx="12.5" fill="#FFFFFF" opacity="0.95"/>

  <circle cx="70" cy="150" r="15" fill="#FFFFFF" opacity="0.95"/>
  <rect x="102.5" y="137.5" width="100" height="25" rx="12.5" fill="#FFFFFF" opacity="0.95"/>

  <circle cx="70" cy="200" r="15" fill="#FFFFFF" opacity="0.95"/>
  <rect x="102.5" y="187.5" width="120" height="25" rx="12.5" fill="#FFFFFF" opacity="0.95"/>

  <path d="M250,65 C250,65 215,40 215,20 C215,7.5 225,0 232.5,0 C240,0 245,5 250,10 C255,5 260,0 267.5,0 C275,0 285,7.5 285,20 C285,40 250,65 250,65 Z" fill="#F9A8C9" opacity="0.92"/>
</svg>
