<svg xmlns="http://www.w3.org/2000/svg" viewBox="310 410 280 225" width="280" height="225">
  <defs>
    <style>
      @import url('https://fonts.googleapis.com/css2?family=Nunito:wght@400;600;700;800&amp;display=swap');
    </style>
    <linearGradient id="iconGrad" x1="0%" y1="0%" x2="100%" y2="100%">
      <stop offset="0%" style="stop-color:#B5E8C8;stop-opacity:1" />
      <stop offset="100%" style="stop-color:#A8D8EA;stop-opacity:1" />
    </linearGradient>
    <filter id="softShadow" x="-20%" y="-20%" width="140%" height="140%">
      <feDropShadow dx="0" dy="4" stdDeviation="8" flood-color="#5BA08A" flood-opacity="0.15"/>
    </filter>
  </defs>

  <rect x="390" y="424" width="120" height="120" rx="28" fill="url(#iconGrad)" filter="url(#softShadow)"/>

  <circle cx="418" cy="464" r="6" fill="#FFFFFF" opacity="0.95"/>
  <rect x="431" y="459" width="52" height="10" rx="5" fill="#FFFFFF" opacity="0.95"/>

  <circle cx="418" cy="484" r="6" fill="#FFFFFF" opacity="0.95"/>
  <rect x="431" y="479" width="40" height="10" rx="5" fill="#FFFFFF" opacity="0.95"/>

  <circle cx="418" cy="504" r="6" fill="#FFFFFF" opacity="0.95"/>
  <rect x="431" y="499" width="48" height="10" rx="5" fill="#FFFFFF" opacity="0.95"/>

  <path d="M491,442 C491,442 475,431 475,421 C475,415 479,411 483,411 C486,411 489,414 491,416 C493,414 496,411 499,411 C503,411 507,415 507,421 C507,431 491,442 491,442 Z" fill="#F9A8C9" opacity="0.92"/>

  <text x="450" y="596" font-family="'Nunito', 'Trebuchet MS', sans-serif" font-weight="800" fill="#3D7A63" letter-spacing="-1" text-anchor="middle">
    <tspan font-size="52">Gather </tspan><tspan font-size="28" font-weight="600" fill="#85BFA8">Lists</tspan>
  </text>

  <text x="463" y="621" font-family="'Nunito', 'Trebuchet MS', sans-serif" font-size="13.5" font-weight="600" fill="#85BFA8" text-anchor="middle" letter-spacing="0.4">Gather your lists, meals, and more.</text>
</svg>
